<svg xmlns="http://www.w3.org/2000/svg" xmlns:xlink="http://www.w3.org/1999/xlink" version="1.1" id="Layer_1" x="0px" y="0px" width="261.085px" height="261.085px" viewBox="0 0 261.085 261.085" enable-background="new 0 0 261.085 261.085" xml:space="preserve">
<g>
	<path fill-rule="evenodd" clip-rule="evenodd" fill="#7F7F7F" d="M130.542,0c72.084,0,130.542,58.458,130.542,130.542   s-58.458,130.542-130.542,130.542C58.458,261.084,0,202.626,0,130.542S58.458,0,130.542,0L130.542,0z M130.542,63.972   c-36.757,0-66.57,29.813-66.57,66.569c0,36.759,29.813,66.571,66.57,66.571c36.759,0,66.57-29.813,66.57-66.571   C197.112,93.785,167.301,63.972,130.542,63.972z"/>
	<path fill-rule="evenodd" clip-rule="evenodd" fill="#8E8E8E" d="M130.543,0.404c71.861,0,130.139,58.277,130.139,130.139   s-58.277,130.14-130.139,130.14c-71.862,0-130.14-58.278-130.14-130.14S58.681,0.404,130.543,0.404L130.543,0.404z M130.542,63.972   c-36.757,0-66.57,29.813-66.57,66.569c0,36.759,29.813,66.571,66.57,66.571c36.759,0,66.57-29.813,66.57-66.571   C197.112,93.785,167.301,63.972,130.542,63.972z"/>
	<path fill-rule="evenodd" clip-rule="evenodd" fill="#9D9D9D" d="M130.543,0.806c71.639,0,129.736,58.098,129.736,129.736   c0,71.64-58.098,129.736-129.736,129.736c-71.64,0-129.737-58.097-129.737-129.736C0.806,58.904,58.903,0.806,130.543,0.806   L130.543,0.806z M130.542,63.972c-36.757,0-66.57,29.813-66.57,66.569c0,36.759,29.813,66.571,66.57,66.571   c36.759,0,66.57-29.813,66.57-66.571C197.112,93.785,167.301,63.972,130.542,63.972z"/>
	<path fill-rule="evenodd" clip-rule="evenodd" fill="#ACACAC" d="M130.543,1.209c71.416,0,129.333,57.916,129.333,129.333   s-57.917,129.333-129.333,129.333c-71.417,0-129.333-57.916-129.333-129.333S59.126,1.209,130.543,1.209L130.543,1.209z    M130.542,63.972c-36.757,0-66.57,29.813-66.57,66.569c0,36.759,29.813,66.571,66.57,66.571c36.759,0,66.57-29.813,66.57-66.571   C197.112,93.785,167.301,63.972,130.542,63.972z"/>
	<path fill-rule="evenodd" clip-rule="evenodd" fill="#BBBBBB" d="M130.542,1.612c71.195,0,128.931,57.736,128.931,128.931   s-57.736,128.931-128.931,128.931c-71.194,0-128.931-57.736-128.931-128.931S59.348,1.612,130.542,1.612L130.542,1.612z    M130.542,63.972c-36.757,0-66.57,29.813-66.57,66.569c0,36.759,29.813,66.571,66.57,66.571c36.759,0,66.57-29.813,66.57-66.571   C197.112,93.785,167.301,63.972,130.542,63.972z"/>
	<g>
		<defs>
			<path id="SVGID_1_" d="M130.542,1.612c71.195,0,128.931,57.736,128.931,128.931s-57.736,128.931-128.931,128.931     c-71.194,0-128.931-57.736-128.931-128.931S59.348,1.612,130.542,1.612L130.542,1.612z M130.542,63.972     c-36.757,0-66.57,29.813-66.57,66.569c0,36.759,29.813,66.571,66.57,66.571c36.759,0,66.57-29.813,66.57-66.571     C197.112,93.785,167.301,63.972,130.542,63.972z"/>
		</defs>
		<clipPath id="SVGID_2_">
			<use xlink:href="#SVGID_1_" overflow="visible"/>
		</clipPath>
		<g clip-path="url(#SVGID_2_)">
			<g>
				<path fill-rule="evenodd" clip-rule="evenodd" fill="#C4C4C4" d="M125.916,0.082c70.684,2.437,129.428,55.475,129.428,130.46      c0,74.986-58.744,128.025-129.428,130.463c73.423,2.562,135.169-56.871,135.169-130.463C261.085,58.458,202.627,0,130.542,0      C128.994,0,127.452,0.028,125.916,0.082z"/>
				<g>
					<path fill-rule="evenodd" clip-rule="evenodd" fill="#CACACA" d="M126.583,0.096c70.28,2.121,129.16,56.358,129.16,130.445       c0,74.089-58.49,128.127-129.16,130.448c72.489,2.249,134.135-56.802,134.135-130.448c0-72.075-58.634-130.335-130.024-130.544       C129.162-0.006,128.104,0.042,126.583,0.096z"/>
					<path fill-rule="evenodd" clip-rule="evenodd" fill="#D0D0D0" d="M127.25,0.11c69.875,1.806,128.893,57.242,128.893,130.432       c0,73.19-58.238,128.228-128.893,130.433c71.555,1.937,133.102-56.731,133.102-130.433       c0-72.067-58.809-130.129-129.504-130.547C129.33-0.014,128.756,0.057,127.25,0.11z"/>
					<path fill-rule="evenodd" clip-rule="evenodd" fill="#D5D5D5" d="M127.918,0.125c69.47,1.489,128.625,58.126,128.625,130.417       c0,72.292-57.985,128.329-128.625,130.418c70.621,1.622,132.068-56.662,132.068-130.418c0-72.06-58.984-129.924-128.985-130.55       C129.498-0.021,129.408,0.072,127.918,0.125z"/>
					<path fill-rule="evenodd" clip-rule="evenodd" fill="#DBDBDB" d="M128.585,0.14c69.066,1.173,128.358,59.009,128.358,130.401       c0,71.395-57.732,128.431-128.358,130.404c69.688,1.31,131.035-56.593,131.035-130.404       c0-72.051-59.159-129.717-128.466-130.552C129.667-0.028,130.061,0.086,128.585,0.14z"/>
				</g>
				<path fill-rule="evenodd" clip-rule="evenodd" fill="#E1E1E1" d="M129.253,0.155c68.662,0.857,128.091,59.893,128.091,130.387      c0,70.497-57.479,128.532-128.091,130.39c68.754,0.996,130.001-56.523,130.001-130.39c0-72.043-59.335-129.511-127.947-130.555      C129.835-0.036,130.713,0.101,129.253,0.155z"/>
			</g>
		</g>
	</g>
	<path fill-rule="evenodd" clip-rule="evenodd" fill="#C1C1C1" d="M125.775,15.733c27.578,0,52.876,9.823,72.619,26.178   c-18.807-14.421-42.328-22.997-67.853-22.997c-61.64,0-111.628,49.988-111.628,111.628c0,61.642,49.988,111.63,111.628,111.63   c25.529,0,49.054-8.581,67.862-23.006c-19.744,16.359-45.047,26.187-72.629,26.187c-63.089,0-114.952-51.413-114.952-114.811   C10.824,65.333,62.687,15.733,125.775,15.733z"/>
	<g>
		<path fill-rule="evenodd" clip-rule="evenodd" fill="#C6C6C6" d="M125.775,15.878c27.578,0,51.47,9.479,70.663,24.697    c-17.966-13.288-40.372-21.772-65.896-21.772c-61.897,0-111.824,50.063-111.824,111.703s50.184,111.851,111.824,111.78    c23.643-0.014,45.062-7.554,63.365-20.606c-19.132,14.858-42.231,23.502-67.883,23.502c-62.335,0-114.599-51.243-114.599-114.641    C11.425,65.333,63.196,15.878,125.775,15.878z"/>
		<path fill-rule="evenodd" clip-rule="evenodd" fill="#CBCBCB" d="M125.775,16.023c27.578,0,50.064,9.134,68.708,23.218    c-17.126-12.154-38.417-20.549-63.941-20.549c-62.153,0-112.02,50.138-112.02,111.778c0,61.642,50.38,112.072,112.02,111.932    c21.757-0.028,41.069-6.526,58.868-18.207c-18.519,13.356-39.416,20.817-63.138,20.817c-61.582,0-114.245-51.073-114.245-114.471    C12.027,65.333,63.705,16.023,125.775,16.023z"/>
		<path fill-rule="evenodd" clip-rule="evenodd" fill="#D0D0D0" d="M125.775,16.168c27.578,0,48.658,8.789,66.752,21.736    c-16.286-11.021-36.461-19.323-61.985-19.323c-62.41,0-112.215,50.213-112.215,111.854s50.576,112.293,112.215,112.082    c19.871-0.042,37.076-5.499,54.371-15.808c-17.905,11.855-36.601,18.132-58.393,18.132c-60.828,0-113.891-50.902-113.891-114.3    C12.629,65.333,64.213,16.168,125.775,16.168z"/>
		<path fill-rule="evenodd" clip-rule="evenodd" fill="#D5D5D5" d="M125.775,16.314c27.578,0,47.252,8.444,64.796,20.256    c-15.445-9.888-34.505-18.099-60.029-18.099c-62.666,0-112.411,50.288-112.411,111.929s50.772,112.514,112.411,112.232    c17.985-0.056,33.084-4.471,49.874-13.408c-17.293,10.354-33.786,15.447-53.648,15.447c-60.074,0-113.537-50.732-113.537-114.13    C13.231,65.333,64.722,16.314,125.775,16.314z"/>
		<path fill-rule="evenodd" clip-rule="evenodd" fill="#DADADA" d="M125.775,16.459c27.578,0,45.847,8.099,62.841,18.774    c-14.605-8.754-32.55-16.873-58.074-16.873c-62.923,0-112.606,50.362-112.606,112.003s50.968,112.735,112.606,112.384    c16.099-0.07,29.092-3.443,45.377-11.009c-16.68,8.853-30.971,12.762-48.902,12.762c-59.321,0-113.184-50.562-113.184-113.959    C13.833,65.333,65.231,16.459,125.775,16.459z"/>
		<path fill-rule="evenodd" clip-rule="evenodd" fill="#DFDFDF" d="M125.775,16.605c27.578,0,44.44,7.754,60.885,17.294    c-13.765-7.621-30.594-15.649-56.118-15.649C67.363,18.25,17.74,68.687,17.74,130.329c0,61.641,51.164,112.956,112.802,112.534    c14.213-0.084,25.099-2.416,40.88-8.61c-16.067,7.353-28.155,10.078-44.157,10.078c-58.567,0-112.83-50.392-112.83-113.789    C14.435,65.333,65.74,16.605,125.775,16.605z"/>
	</g>
	<path fill-rule="evenodd" clip-rule="evenodd" fill="#E4E4E4" d="M125.775,16.75c27.578,0,43.034,7.409,58.93,15.814   c-12.925-6.488-28.639-14.425-54.163-14.425c-63.436,0-112.998,50.513-112.998,112.153s51.36,113.178,112.998,112.686   c12.327-0.099,21.106-1.389,36.383-6.211c-15.454,5.851-25.34,7.394-39.412,7.394c-57.813,0-112.476-50.222-112.476-113.619   C15.037,65.333,66.249,16.75,125.775,16.75z"/>
	<path fill-rule="evenodd" clip-rule="evenodd" fill="#B1B1B1" d="M130.542,18.914c61.642,0,111.63,49.988,111.63,111.628   c0,61.642-49.988,111.63-111.63,111.63c-61.64,0-111.628-49.988-111.628-111.63C18.914,68.902,68.902,18.914,130.542,18.914   L130.542,18.914z M130.542,63.972c-36.757,0-66.57,29.813-66.57,66.569c0,36.759,29.813,66.571,66.57,66.571   c36.759,0,66.57-29.813,66.57-66.571C197.112,93.785,167.301,63.972,130.542,63.972z"/>
	<g>
		<defs>
			<path id="SVGID_3_" d="M130.542,18.914c61.642,0,111.63,49.988,111.63,111.628c0,61.642-49.988,111.63-111.63,111.63     c-61.64,0-111.628-49.988-111.628-111.63C18.914,68.902,68.902,18.914,130.542,18.914L130.542,18.914z M130.542,63.972     c-36.757,0-66.57,29.813-66.57,66.569c0,36.759,29.813,66.571,66.57,66.571c36.759,0,66.57-29.813,66.57-66.571     C197.112,93.785,167.301,63.972,130.542,63.972z"/>
		</defs>
		<clipPath id="SVGID_4_">
			<use xlink:href="#SVGID_3_" overflow="visible"/>
		</clipPath>
		<g clip-path="url(#SVGID_4_)">
			<g>
				<path fill-rule="evenodd" clip-rule="evenodd" fill="#AFAFAF" d="M126.646,207.667c42.479,0,77.125-34.646,77.125-77.125      s-34.646-77.125-77.125-77.125s-77.125,34.646-77.125,77.125S84.167,207.667,126.646,207.667z"/>
				<g>
					<circle fill-rule="evenodd" clip-rule="evenodd" fill="#A4A4A4" cx="127.165" cy="130.568" r="75.585"/>
					<circle fill-rule="evenodd" clip-rule="evenodd" fill="#9A9A9A" cx="127.684" cy="130.592" r="74.045"/>
					<circle fill-rule="evenodd" clip-rule="evenodd" fill="#8F8F8F" cx="128.203" cy="130.617" r="72.504"/>
					<circle fill-rule="evenodd" clip-rule="evenodd" fill="#858585" cx="128.722" cy="130.642" r="70.963"/>
					<circle fill-rule="evenodd" clip-rule="evenodd" fill="#7B7B7B" cx="129.24" cy="130.667" r="69.423"/>
					<circle fill-rule="evenodd" clip-rule="evenodd" fill="#717171" cx="129.759" cy="130.691" r="67.883"/>
				</g>
				<path fill-rule="evenodd" clip-rule="evenodd" fill="#666666" d="M130.278,197.058c36.54,0,66.342-29.803,66.342-66.343      c0-36.539-29.803-66.342-66.342-66.342s-66.342,29.803-66.342,66.342C63.936,167.255,93.738,197.058,130.278,197.058z"/>
			</g>
		</g>
	</g>
	<path fill-rule="evenodd" clip-rule="evenodd" fill="#A7A7A7" d="M128.548,26.484c49.86,0,96.482,42.292,96.482,104.058   c0,59.073-48.347,101.082-102.872,101.082c-17.331,0-54.124-9.564-75.409-30.77c11.005,26.015,62.687,41.317,83.793,41.317   c61.642,0,111.63-49.988,111.63-111.63c0-61.64-49.988-111.628-111.63-111.628c-21.106,0-52.065,9.121-70.167,28.695   C92.719,27.923,111.217,26.484,128.548,26.484z"/>
	<g>
		<path fill-rule="evenodd" clip-rule="evenodd" fill="#A0A0A0" d="M128.409,25.865c51.521,0.071,98.252,43.296,98.252,104.677    c0,59.073-48.464,102.367-104.575,102.143c-17.33-0.059-51.292-9.002-71.606-28.22c11.838,23.753,58.706,37.528,79.813,37.528    c61.142,0,111.616-49.81,111.616-111.451c0-61.64-50.281-111.354-111.434-111.354c-21.107,0-50.194,8.763-68.116,26.995    C92.151,28.268,111.078,25.844,128.409,25.865z"/>
		<path fill-rule="evenodd" clip-rule="evenodd" fill="#999999" d="M128.27,25.246c53.181,0.142,100.022,44.3,100.022,105.296    c0,59.073-48.58,103.653-106.278,103.204c-17.33-0.118-48.461-8.441-67.804-25.67c12.67,21.491,54.726,33.738,75.832,33.738    c60.642,0,111.603-49.631,111.603-111.272c0-61.64-50.572-111.08-111.239-111.08c-21.106,0-48.323,8.403-66.063,25.294    C91.584,28.613,110.939,25.206,128.27,25.246z"/>
		<path fill-rule="evenodd" clip-rule="evenodd" fill="#929292" d="M128.13,24.626c54.84,0.213,101.793,45.304,101.793,105.915    c0,59.073-48.698,104.938-107.982,104.265c-17.329-0.178-45.629-7.88-64.001-23.12c13.503,19.229,50.746,29.949,71.852,29.949    c60.142,0,111.59-49.452,111.59-111.094c0-61.64-50.866-110.806-111.045-110.806c-21.106,0-46.452,8.043-64.012,23.593    C91.018,28.957,110.8,24.566,128.13,24.626z"/>
		<path fill-rule="evenodd" clip-rule="evenodd" fill="#8C8C8C" d="M127.991,24.006c56.501,0.284,103.564,46.309,103.564,106.535    c0,59.073-48.814,106.224-109.686,105.326c-17.328-0.237-42.797-7.319-60.199-20.571c14.336,16.968,46.766,26.16,67.872,26.16    c59.642,0,111.576-49.273,111.576-110.915c0-61.64-51.158-110.532-110.85-110.532c-21.106,0-44.582,7.685-61.96,21.893    C90.45,29.301,110.661,23.926,127.991,24.006z"/>
		<path fill-rule="evenodd" clip-rule="evenodd" fill="#858585" d="M127.852,23.387c58.161,0.355,105.334,47.313,105.334,107.154    c0,59.073-48.932,107.51-111.389,106.387c-17.327-0.296-39.965-6.757-56.396-18.021c15.169,14.706,42.785,22.371,63.892,22.371    c59.142,0,111.563-49.095,111.563-110.736c0-61.64-51.45-110.258-110.654-110.258c-21.106,0-42.71,7.325-59.908,20.191    C89.883,29.646,110.521,23.288,127.852,23.387z"/>
		<path fill-rule="evenodd" clip-rule="evenodd" fill="#7F7F7F" d="M127.712,22.768c59.821,0.426,107.105,48.317,107.105,107.773    c0,59.073-49.049,108.795-113.092,107.448c-17.327-0.356-37.134-6.196-52.595-15.472c16.002,12.444,38.805,18.581,59.912,18.581    c58.642,0,111.55-48.916,111.55-110.558c0-61.64-51.743-109.984-110.46-109.984c-21.106,0-40.84,6.967-57.856,18.491    C89.316,29.99,110.382,22.648,127.712,22.768z"/>
	</g>
	<path fill-rule="evenodd" clip-rule="evenodd" fill="#787878" d="M127.573,22.149c61.481,0.497,108.875,49.321,108.875,108.393   c0,59.073-49.166,110.08-114.795,108.509c-17.326-0.415-34.303-5.635-48.792-12.922c16.834,10.183,34.825,14.792,55.931,14.792   c58.142,0,111.536-48.737,111.536-110.379c0-61.64-52.035-109.71-110.265-109.71c-21.106,0-38.969,6.607-55.804,16.79   C88.749,30.334,110.243,22.008,127.573,22.149z"/>
	<path fill-rule="evenodd" clip-rule="evenodd" fill="#787878" d="M24.276,130.542c0-60.386,46.001-108.384,107.108-108.384   c24.195,0,47.19,9.193,65.405,22.216c-18.803-14.408-41.301-25.347-66.813-25.347c-61.64,0-111.063,49.875-111.063,111.515   c0,61.642,48.625,111.265,110.265,111.265c25.513,0,48.86-11.381,67.662-25.789c-18.214,13.022-41.615,22.461-65.811,22.461   C69.922,238.478,24.276,190.928,24.276,130.542z"/>
	<path fill-rule="evenodd" clip-rule="evenodd" fill="#B7B7B7" d="M130.181,53.219c43.516,0,74.593,35.575,74.593,77.322   c0,41.749-34.107,75.606-77.623,75.606c-27.996,0-51.664-13.705-65.644-34.818c14.306,28.446,43.226,48.367,76.555,48.367   c47.539,0,85.161-34.854,85.161-89.155c0-63.794-38.557-90.86-86.093-90.31c-33.328,0.386-51.804,13.566-62.967,31.857   C105.763,55.777,102.186,53.219,130.181,53.219z"/>
	<g>
		<linearGradient id="SVGID_5_" gradientUnits="userSpaceOnUse" x1="63.7354" y1="130.1055" x2="221.8262" y2="130.1055">
			<stop offset="0" style="stop-color:#BBBCBD"/>
			<stop offset="0.77" style="stop-color:#C4C3C3"/>
			<stop offset="1" style="stop-color:#C4C3C3"/>
		</linearGradient>
		<path fill-rule="evenodd" clip-rule="evenodd" fill="url(#SVGID_5_)" d="M130.82,52.617c43.621,0.23,74.81,36.178,74.81,77.925    c0,41.749-32.715,76.305-77.772,76.341c-27.996,0.019-49.778-12.873-64.122-32.615c13.852,25.9,40.9,44.615,74.078,44.615    c47.017,0,84.013-34.824,84.013-88.341c0-60.272-36.725-89.28-84.246-89.213c-30.535,0.213-48.37,11.741-59.112,27.98    C106.503,54.86,105.078,52.553,130.82,52.617z"/>
		<linearGradient id="SVGID_6_" gradientUnits="userSpaceOnUse" x1="65.9619" y1="130.2461" x2="220.4277" y2="130.2461">
			<stop offset="0" style="stop-color:#BFBEBD"/>
			<stop offset="0.77" style="stop-color:#CCCCCE"/>
			<stop offset="1" style="stop-color:#CCCCCE"/>
		</linearGradient>
		<path fill-rule="evenodd" clip-rule="evenodd" fill="url(#SVGID_6_)" d="M131.458,52.014c43.728,0.461,75.026,36.78,75.026,78.527    c0,41.749-31.321,77.005-77.922,77.076c-27.995,0.036-47.893-12.041-62.6-30.413c13.397,23.355,38.573,40.863,71.6,40.863    c46.496,0,82.866-34.796,82.866-87.526c0-56.75-34.893-87.7-82.401-88.117c-27.739,0.041-44.935,9.916-55.255,24.104    C107.243,53.944,107.969,51.887,131.458,52.014z"/>
		<linearGradient id="SVGID_7_" gradientUnits="userSpaceOnUse" x1="68.189" y1="130.3862" x2="219.0303" y2="130.3862">
			<stop offset="0" style="stop-color:#C2C2C3"/>
			<stop offset="0.77" style="stop-color:#D8D6D7"/>
			<stop offset="1" style="stop-color:#D8D6D7"/>
		</linearGradient>
		<path fill-rule="evenodd" clip-rule="evenodd" fill="url(#SVGID_7_)" d="M132.098,51.412c43.833,0.69,75.242,37.383,75.242,79.13    c0,41.749-29.929,77.703-78.072,77.811c-27.995,0.055-46.007-11.208-61.079-28.21c12.942,20.81,36.247,37.111,69.123,37.111    c45.974,0,81.719-34.768,81.719-86.712c0-53.229-33.061-86.12-80.557-87.021c-24.945-0.132-41.5,8.091-51.399,20.226    C107.983,53.028,110.861,51.221,132.098,51.412z"/>
		<linearGradient id="SVGID_8_" gradientUnits="userSpaceOnUse" x1="70.416" y1="130.522" x2="217.6328" y2="130.522">
			<stop offset="0" style="stop-color:#C4C3C3"/>
			<stop offset="0.77" style="stop-color:#E1E1E1"/>
			<stop offset="1" style="stop-color:#E1E1E1"/>
		</linearGradient>
		<path fill-rule="evenodd" clip-rule="evenodd" fill="url(#SVGID_8_)" d="M132.736,50.81c43.938,0.92,75.458,37.984,75.458,79.731    c0,41.749-28.535,78.402-78.222,78.545c-27.995,0.074-44.121-10.375-59.557-26.007c12.487,18.265,33.92,33.358,66.646,33.358    c45.451,0,80.571-34.737,80.571-85.896c0-49.706-31.229-84.539-78.712-85.925c-22.15-0.305-38.064,6.266-47.543,16.35    C108.723,52.112,113.753,50.555,132.736,50.81z"/>
		<linearGradient id="SVGID_9_" gradientUnits="userSpaceOnUse" x1="72.6436" y1="130.6528" x2="216.2354" y2="130.6528">
			<stop offset="0" style="stop-color:#C8C7C8"/>
			<stop offset="0.77" style="stop-color:#ECEBEB"/>
			<stop offset="1" style="stop-color:#ECEBEB"/>
		</linearGradient>
		<path fill-rule="evenodd" clip-rule="evenodd" fill="url(#SVGID_9_)" d="M133.375,50.208c44.045,1.15,75.675,38.587,75.675,80.334    c0,41.749-27.143,79.102-78.372,79.28c-27.994,0.092-42.235-9.543-58.035-23.805c12.032,15.72,31.593,29.606,64.168,29.606    c44.93,0,79.424-34.709,79.424-85.082c0-46.185-29.396-82.959-76.867-84.828c-19.355-0.478-34.629,4.44-43.687,12.472    C109.463,51.196,116.646,49.89,133.375,50.208z"/>
		<linearGradient id="SVGID_10_" gradientUnits="userSpaceOnUse" x1="74.8701" y1="130.769" x2="214.8359" y2="130.769">
			<stop offset="0" style="stop-color:#CAC9C9"/>
			<stop offset="0.77" style="stop-color:#F5F6F5"/>
			<stop offset="1" style="stop-color:#F5F6F5"/>
		</linearGradient>
		<path fill-rule="evenodd" clip-rule="evenodd" fill="url(#SVGID_10_)" d="M134.013,49.605    c44.151,1.381,75.892,39.188,75.892,80.937c0,41.749-25.75,79.801-78.521,80.016c-27.994,0.109-40.349-8.712-56.513-21.603    c11.577,13.174,29.266,25.854,61.69,25.854c44.407,0,78.275-34.68,78.275-84.268c0-42.662-27.563-81.379-75.021-83.731    c-16.561-0.65-31.194,2.615-39.83,8.594C110.203,50.279,119.537,49.224,134.013,49.605z"/>
	</g>
	<linearGradient id="SVGID_11_" gradientUnits="userSpaceOnUse" x1="77.0972" y1="130.8462" x2="213.4385" y2="130.8462">
		<stop offset="0" style="stop-color:#CCCCCE"/>
		<stop offset="0.77" style="stop-color:#FFFFFF"/>
		<stop offset="1" style="stop-color:#FFFFFF"/>
	</linearGradient>
	<path fill-rule="evenodd" clip-rule="evenodd" fill="url(#SVGID_11_)" d="M134.652,49.002   c44.256,1.611,76.106,39.791,76.106,81.539c0,41.749-24.356,80.5-78.67,80.75c-27.994,0.129-38.464-7.879-54.992-19.399   c11.123,10.629,26.94,22.103,59.213,22.103c43.886,0,77.128-34.651,77.128-83.453c0-39.141-25.731-79.799-73.176-82.636   c-13.767-0.822-27.76,0.79-35.975,4.718C110.943,49.363,122.429,48.558,134.652,49.002z"/>
	<path fill-rule="evenodd" clip-rule="evenodd" fill="#BBBBBB" d="M128.755,39.495c-50.553,0-82.418,48.833-82.418,94.882   c0,46.051,37.599,88.794,88.113,86.923c25.411-0.941,39.922-7.479,51.514-13.387c-8.724,7.946-31.296,22.021-62.376,22.548   c-59.654,1.013-97.222-43.278-97.546-96.388C25.61,63.705,72.816,25.195,127.958,28.084c39.183,2.053,53.438,15.611,66.939,28.342   C171.912,38.854,140.124,39.495,128.755,39.495z"/>
	<g>
		<linearGradient id="SVGID_12_" gradientUnits="userSpaceOnUse" x1="27.2007" y1="129.3022" x2="192.4492" y2="129.3022">
			<stop offset="0" style="stop-color:#C8C7C8"/>
			<stop offset="0.23" style="stop-color:#C8C7C8"/>
			<stop offset="1" style="stop-color:#BFBEBD"/>
		</linearGradient>
		<path fill-rule="evenodd" clip-rule="evenodd" fill="url(#SVGID_12_)" d="M128.434,38.7c-50.553,0-83.439,48.733-83.428,95.677    c0.01,46.911,37.508,89.267,88.819,87.477c25.412-0.892,38.458-7.15,48.845-12.283c-8.024,7.238-29.605,20.033-58.572,20.493    c-59.087,0.896-96.698-42.924-96.896-96.033C26.938,63.96,75.259,26.062,127.468,28.652c37.799,1.856,52.361,14.566,64.981,26.129    C170.321,38.544,139.803,38.7,128.434,38.7z"/>
		<linearGradient id="SVGID_13_" gradientUnits="userSpaceOnUse" x1="28.3633" y1="129.3984" x2="190.001" y2="129.3984">
			<stop offset="0" style="stop-color:#CFCFCF"/>
			<stop offset="0.23" style="stop-color:#CFCFCF"/>
			<stop offset="1" style="stop-color:#C2C2C3"/>
		</linearGradient>
		<path fill-rule="evenodd" clip-rule="evenodd" fill="url(#SVGID_13_)" d="M128.112,37.905c-50.553,0-84.46,48.634-84.438,96.472    c0.021,47.771,37.417,89.738,89.527,88.03c25.413-0.841,36.992-6.821,46.174-11.181c-7.324,6.531-27.914,18.046-54.766,18.439    c-58.519,0.778-96.174-42.568-96.245-95.677C28.265,64.215,77.701,26.928,126.978,29.22c36.415,1.659,51.284,13.52,63.023,23.915    C168.729,38.237,139.481,37.905,128.112,37.905z"/>
		<linearGradient id="SVGID_14_" gradientUnits="userSpaceOnUse" x1="29.5254" y1="129.4927" x2="187.5537" y2="129.4927">
			<stop offset="0" style="stop-color:#DAD9D8"/>
			<stop offset="0.23" style="stop-color:#DAD9D8"/>
			<stop offset="1" style="stop-color:#C4C3C3"/>
		</linearGradient>
		<path fill-rule="evenodd" clip-rule="evenodd" fill="url(#SVGID_14_)" d="M127.791,37.11c-50.553,0-85.481,48.535-85.449,97.267    c0.032,48.632,37.327,90.211,90.232,88.584c25.415-0.79,35.529-6.492,43.506-10.077c-6.625,5.823-26.224,16.058-50.961,16.384    c-57.952,0.662-95.65-42.213-95.593-95.321c0.066-69.475,50.618-106.15,96.962-104.158c35.031,1.464,50.207,12.475,61.066,21.702    C167.139,37.928,139.16,37.11,127.791,37.11z"/>
		<linearGradient id="SVGID_15_" gradientUnits="userSpaceOnUse" x1="30.687" y1="129.5854" x2="185.1055" y2="129.5854">
			<stop offset="0" style="stop-color:#E3E4E4"/>
			<stop offset="0.23" style="stop-color:#E3E4E4"/>
			<stop offset="1" style="stop-color:#C6C6C6"/>
		</linearGradient>
		<path fill-rule="evenodd" clip-rule="evenodd" fill="url(#SVGID_15_)" d="M127.469,36.315c-50.553,0-86.501,48.435-86.458,98.062    c0.043,49.492,37.236,90.684,90.939,89.138c25.416-0.74,34.063-6.162,40.835-8.974c-5.924,5.115-24.533,14.07-47.156,14.328    c-57.384,0.546-95.127-41.857-94.942-94.965c0.231-69.177,51.897-105.242,95.31-103.549c33.647,1.268,49.13,11.43,59.108,19.489    C165.547,37.62,138.838,36.315,127.469,36.315z"/>
		<linearGradient id="SVGID_16_" gradientUnits="userSpaceOnUse" x1="31.8472" y1="129.6782" x2="182.6572" y2="129.6782">
			<stop offset="0" style="stop-color:#ECEDEC"/>
			<stop offset="0.23" style="stop-color:#ECEDEC"/>
			<stop offset="1" style="stop-color:#C8C9C9"/>
		</linearGradient>
		<path fill-rule="evenodd" clip-rule="evenodd" fill="url(#SVGID_16_)" d="M127.147,35.519c-50.553,0-87.522,48.337-87.468,98.857    c0.054,50.353,37.146,91.155,91.646,89.691c25.417-0.689,32.6-5.833,38.166-7.871c-5.226,4.408-22.843,12.083-43.351,12.274    c-56.817,0.429-94.603-41.502-94.291-94.609c0.397-68.88,53.178-104.334,93.657-102.939c32.265,1.071,48.053,10.384,57.151,17.275    C163.956,37.311,138.517,35.519,127.147,35.519z"/>
		<linearGradient id="SVGID_17_" gradientUnits="userSpaceOnUse" x1="33.0068" y1="129.77" x2="180.209" y2="129.77">
			<stop offset="0" style="stop-color:#F5F6F5"/>
			<stop offset="0.23" style="stop-color:#F5F6F5"/>
			<stop offset="1" style="stop-color:#CAC9C9"/>
		</linearGradient>
		<path fill-rule="evenodd" clip-rule="evenodd" fill="url(#SVGID_17_)" d="M126.826,34.724c-50.553,0-88.543,48.237-88.479,99.652    c0.065,51.213,37.055,91.628,92.353,90.246c25.419-0.641,31.135-5.505,35.496-6.769c-4.524,3.7-21.151,10.095-39.545,10.22    c-56.25,0.312-94.079-41.147-93.64-94.254c0.563-68.582,54.458-103.425,92.005-102.33c30.881,0.875,46.976,9.339,55.193,15.063    C162.365,37.002,138.195,34.724,126.826,34.724z"/>
	</g>
	<linearGradient id="SVGID_18_" gradientUnits="userSpaceOnUse" x1="34.1665" y1="129.8599" x2="177.7617" y2="129.8599">
		<stop offset="0" style="stop-color:#FFFFFF"/>
		<stop offset="0.23" style="stop-color:#FFFFFF"/>
		<stop offset="1" style="stop-color:#CCCCCE"/>
	</linearGradient>
	<path fill-rule="evenodd" clip-rule="evenodd" fill="url(#SVGID_18_)" d="M126.504,33.929c-50.553,0-89.564,48.138-89.488,100.447   c0.075,52.073,36.964,92.101,93.059,90.8c25.42-0.59,29.671-5.175,32.827-5.665c-3.826,2.992-19.461,8.107-35.741,8.164   c-55.682,0.195-93.555-40.791-92.989-93.897c0.728-68.285,55.738-102.517,90.353-101.721c29.498,0.679,45.899,8.294,53.236,12.85   C160.773,36.694,137.874,33.929,126.504,33.929z"/>
</g>
</svg>